<?xml version="1.0" encoding="utf-8"?>
<!-- Generator: Adobe Illustrator 14.0.0, SVG Export Plug-In . SVG Version: 6.00 Build 43363)  -->
<!DOCTYPE svg PUBLIC "-//W3C//DTD SVG 1.1//EN" "http://www.w3.org/Graphics/SVG/1.1/DTD/svg11.dtd" [
	<!ENTITY ns_flows "http://ns.adobe.com/Flows/1.0/">
	<!ENTITY ns_extend "http://ns.adobe.com/Extensibility/1.0/">
	<!ENTITY ns_ai "http://ns.adobe.com/AdobeIllustrator/10.0/">
	<!ENTITY ns_graphs "http://ns.adobe.com/Graphs/1.0/">
]>
<svg version="1.1" id="Layer_1" xmlns:x="&ns_extend;" xmlns:i="&ns_ai;" xmlns:graph="&ns_graphs;"
	 xmlns="http://www.w3.org/2000/svg" xmlns:xlink="http://www.w3.org/1999/xlink" xmlns:a="http://ns.adobe.com/AdobeSVGViewerExtensions/3.0/"
	 x="0px" y="0px" width="31px" height="32px" viewBox="0 0 31 32" enable-background="new 0 0 31 32" xml:space="preserve">
<g>
	<path fill-rule="evenodd" clip-rule="evenodd" fill="#D52322" d="M22.096,25.675c-0.309,0.522-0.708,0.99-1.198,1.378
		c-0.989,0.782-2.197,1.237-3.42,1.497c-0.023,0.006-0.049,0.011-0.075,0.016c-0.039,0.063-0.082,0.126-0.136,0.191
		c-0.323,0.4-0.832,0.64-1.35,0.537c-0.181-0.036-0.447-0.187-0.58-0.189c-0.154-0.005-0.424,0.152-0.613,0.189
		c-0.563,0.111-1.07-0.169-1.357-0.648c-0.012-0.02-0.023-0.04-0.034-0.06c-0.049-0.011-0.101-0.021-0.142-0.03
		c-1.209-0.265-2.468-0.729-3.447-1.503c-0.387-0.307-0.72-0.666-0.997-1.064c-0.646,0.672-1.535,0.923-2.599,0.923
		c-0.975,0-2.236-1.017-3.073-1.136c-0.097-0.014-1.526,0.403-1.852,0.446c0.321-0.755,0.656-1.693,1.502-2.001
		c0.131-0.048,0.292-0.07,0.461-0.078c-0.305-0.363-0.346-0.829-0.467-0.874c-0.504,0.117-0.362,0.386-1.314,0.444
		c-0.044-0.947,0.299-2.259,1.44-2.414c0.737-0.1,0.882,0.229,1.263,0.52c0.151-0.312-0.193-1.393-0.055-1.973
		c0.185-0.775,0.708-1.179,1.104-1.805l0.028-0.044l0.086-0.094c-0.373-1.33-0.31-2.767,0.054-4.097
		c-6.7-1.843-3.107-10.583,1.502-11.021l1.804-0.171L7.265,3.804C6.352,4.599,5.863,5.787,5.86,6.988
		c-0.002,0.867,0.284,1.99,1.081,2.467C7.2,9.611,7.482,9.673,7.775,9.665c0.763-0.728,1.65-1.296,2.629-1.657
		c-0.658-0.749-1.077-1.675-0.91-2.719c0.408-2.554,3.634-3.583,5.861-3.606c5.016-0.053,7.615,4.945,5.607,6.961
		c0.663,0.259,1.288,0.603,1.858,1.038c0.085-0.033,0.167-0.075,0.245-0.123c0.787-0.487,1.076-1.563,1.064-2.433
		c-0.016-1.234-0.569-2.4-1.504-3.205l-1.041-0.898l1.37-0.122c4.664-0.413,8.077,8.153,2.523,10.676
		c0.41,1.364,0.472,2.824,0.262,4.231l0.173,0.189l0.028,0.044c0.396,0.626,0.92,1.029,1.104,1.805
		c0.136,0.574-0.2,1.642-0.06,1.965c0.347-0.289,0.513-0.529,1.168-0.44c0.906,0.124,1.017,0.929,1.485,1.452l0.044,1.086
		l-0.703-0.161c-0.184-0.077-0.586-0.38-0.64-0.412c-0.13,0.039-0.153,0.465-0.432,0.808c0.17,0.008,0.332,0.03,0.465,0.078
		c0.527,0.191,0.663,0.549,1.026,0.883l0.373,1.104l-0.941-0.119c-0.146-0.047-0.705-0.327-0.808-0.313
		c-0.838,0.119-2.099,1.136-3.073,1.136C23.627,26.911,22.71,26.53,22.096,25.675z"/>
	<path fill-rule="evenodd" clip-rule="evenodd" fill="#000004" d="M23.556,16.291c0.632,0.687,1.263,1.373,1.894,2.061
		c0.345,0.544,0.883,1.004,1.031,1.63c0.209,0.872-0.509,1.771,0.183,2.343c0.624,0.515,0.611-0.487,1.414-0.378
		c0.559,0.077,0.753,0.843,1.129,1.264c-0.343-0.144-0.674-0.538-1.03-0.433c-0.692,0.206-0.357,1.044-1.063,1.192
		c-0.45,0.095-0.952-0.089-1.23-0.631c0.189,0.42,0.174,1.018,0.565,1.263c0.492,0.306,1.186-0.032,1.729,0.166
		c0.354,0.129,0.555,0.509,0.831,0.765c-0.354-0.111-0.695-0.385-1.063-0.333c-0.619,0.088-2.366,1.131-2.991,1.131
		c-3.689,0-2.595-3.351-4.189-6.15C21.694,18.884,22.625,17.587,23.556,16.291z"/>
	<path fill-rule="evenodd" clip-rule="evenodd" fill="#000004" d="M7.544,16.291c-0.631,0.687-1.263,1.373-1.895,2.061
		c-0.344,0.544-0.882,1.004-1.03,1.63c-0.208,0.872,0.509,1.771-0.183,2.343c-0.625,0.515-0.711-0.558-1.513-0.449
		c-0.56,0.076-0.753,0.842-1.13,1.264c0.343-0.145,0.673-0.539,1.03-0.433c0.693,0.206,0.457,1.115,1.164,1.264
		c0.45,0.095,0.952-0.089,1.229-0.631c-0.188,0.42-0.174,1.018-0.565,1.263c-0.491,0.306-1.185-0.032-1.728,0.166
		c-0.354,0.129-0.555,0.509-0.832,0.765c0.355-0.111,0.696-0.385,1.064-0.333c0.619,0.088,2.366,1.131,2.991,1.131
		c3.69,0,2.595-3.351,4.189-6.15C9.406,18.884,8.476,17.587,7.544,16.291z"/>
	<path fill-rule="evenodd" clip-rule="evenodd" fill="#000004" d="M15.55,13.389c-2.901,1.211-5.271,4.917-8.173,6.127
		c-0.776-1.196-0.541,0.082-1.316-1.115C4.52,14.741,6.999,9.229,11.547,8.284c-3.375-2.644-0.631-5.974,3.815-6.02
		c5.245-0.055,7.474,5.78,4.078,6.533c4.548,0.944,6.571,5.145,5.601,9.604c-0.776,1.197-0.541-0.081-1.317,1.115
		C20.822,18.306,18.452,14.6,15.55,13.389z"/>
	<path fill-rule="evenodd" clip-rule="evenodd" fill="#6F8CC7" d="M23.53,18.321c-0.014,0.385-0.093,0.677-0.175,0.952
		c-0.365,1.225-0.101,1.574,0.107,2.766c0.099,0.562-0.113,0.948-0.43,1.088c-0.251,0.111-0.59,0.063-0.737-0.136l-0.009-0.01
		c-0.081,1.448-0.66,2.752-1.751,3.614c-0.926,0.731-2.062,1.146-3.181,1.386c-0.537,0.115-0.243,0.041-0.541,0.41
		c-0.194,0.239-0.486,0.391-0.784,0.331c-0.258-0.051-0.369-0.191-0.674-0.201c-0.36-0.011-0.452,0.144-0.745,0.201
		c-0.323,0.064-0.583-0.105-0.745-0.375c-0.154-0.258-0.065-0.254-0.551-0.36c-1.115-0.245-2.304-0.675-3.211-1.392
		c-1.114-0.881-1.694-2.224-1.755-3.712c-0.022,0.025-0.043,0.05-0.061,0.073c-0.148,0.197-0.486,0.245-0.737,0.136
		c-0.317-0.142-0.529-0.527-0.431-1.089c0.208-1.19,0.473-1.54,0.107-2.767c-0.081-0.273-0.161-0.565-0.174-0.95
		c-0.018-0.525,0.238-1.065,0.791-1.054c0.302,0.005,0.603,0.225,0.789,0.544c-0.16-1.038-0.202-2.015-0.014-3.06
		c-0.07-3.43,4.51-3.424,6.701-2.482c2.466-0.598,5.968-0.873,6.702,2.482c0.184,1.022,0.147,1.979-0.004,2.991
		c0.187-0.262,0.454-0.436,0.722-0.44C23.293,17.257,23.549,17.797,23.53,18.321z"/>
	<path fill-rule="evenodd" clip-rule="evenodd" fill="#000004" d="M15.424,23.765c-0.063-0.013-0.117-0.024-0.163-0.038
		l-0.007,0.038c-0.684-0.085-1.416-0.066-2.08,0.115c-0.885,0.24-1.511,0.633-2.309,1.083c-0.569,0.319-1.324,0.691-1.967,0.569
		c-1.244-0.235-2.422-0.361-3.135-1.539c1.35,0.285,2.721,0.076,4.048-0.172c1.152-0.213,2.111-0.747,3.278-0.854
		c0.771-0.071,1.51,0.115,2.25,0.342c0.741-0.227,1.481-0.413,2.251-0.342c1.168,0.107,2.126,0.642,3.278,0.854
		c1.327,0.248,2.699,0.457,4.048,0.172c-0.712,1.178-1.891,1.304-3.135,1.539c-0.644,0.122-1.398-0.25-1.967-0.569
		c-0.799-0.45-1.425-0.843-2.31-1.083C16.842,23.698,16.11,23.68,15.424,23.765z"/>
	<path fill-rule="evenodd" clip-rule="evenodd" fill="#000004" d="M10.612,11.437L9.694,9.541c-4.172,2.8-5.968-3.428-2.812-6.175
		c-4.214,0.399-8.038,9.403,0.122,10.149C8.207,12.822,9.41,12.129,10.612,11.437z"/>
	<path fill-rule="evenodd" clip-rule="evenodd" fill="#000004" d="M19.848,11.55l0.348-1.895c4.172,2.799,6.196-3.257,2.812-6.175
		c4.499-0.398,8.038,9.403-0.121,10.149C21.683,12.936,21.051,12.243,19.848,11.55z"/>
	<path fill-rule="evenodd" clip-rule="evenodd" fill="#E0E0DF" d="M13.749,18.797c-0.408-0.605-0.729-1.087-1.818-1.171
		c-1.166-0.089-1.452,0.287-2.377,0.939c0.498,0.569,1.1,1.186,2.147,1.163C12.716,19.706,13.26,19.285,13.749,18.797z"/>
	<path fill-rule="evenodd" clip-rule="evenodd" fill="#000004" d="M16.37,16.299l0.477,0.173c1.37,0.106,2.829-1.242,4.121-1.204
		c1.553,0.045,2.109,0.969,3.097,1.084c-0.895-0.336-1.217-1.539-3.115-1.652c-1.887-0.114-2.479,1.109-4.062,1.094
		C16.354,15.789,16.167,16.096,16.37,16.299z"/>
	<path fill-rule="evenodd" clip-rule="evenodd" fill="#000004" d="M13.801,16.472l0.474-0.177c0.196-0.204,0.011-0.506-0.521-0.501
		c-1.582,0.015-2.408-1.139-4.293-1.025c-1.899,0.114-1.988,1.247-2.884,1.583c0.988-0.115,1.313-0.969,2.866-1.014
		C10.735,15.301,12.428,16.582,13.801,16.472z"/>
	<path fill-rule="evenodd" clip-rule="evenodd" fill="#000004" d="M14.274,16.295l-0.474,0.177c0.004-0.001,0.04,0.038,0.048,0.045
		c0.486,0.362,0.515,3.471,0.529,5.009c0.003,0.303,0.005,0.547,0.01,0.698c0.001,0.03,0.004,0.062,0.009,0.091
		c-0.104,0.032-0.194,0.087-0.286,0.143c-0.026,0.015-0.052,0.03-0.092,0.051l0.001,0.001l-0.014,0.006
		c-0.063,0.032-0.127,0.048-0.183,0.045c-0.039-0.002-0.077-0.019-0.109-0.051l-0.006-0.006l0,0
		c-0.017-0.018-0.032-0.04-0.042-0.065l-0.004-0.007c-0.037-0.085-0.04-0.186-0.02-0.275c0.015-0.061,0.032-0.105,0.048-0.12
		c0.121-0.039,0.186-0.139,0.145-0.234c-0.044-0.1-0.191-0.153-0.329-0.123c-0.038,0.01-0.072,0.022-0.105,0.038
		c-0.008,0.003-0.016,0.008-0.022,0.013c-0.125,0.072-0.215,0.209-0.251,0.362c-0.033,0.144-0.026,0.311,0.038,0.457l0.005,0.01
		c0.026,0.058,0.062,0.112,0.108,0.162l0.001,0.001v0.001l0.007,0.008l0.002,0.002l0,0c0.13,0.134,0.306,0.199,0.498,0.21
		c0.173,0.009,0.354-0.032,0.515-0.111l0.003-0.003l0.016-0.007l0.003-0.001l0,0c0.033-0.017,0.076-0.043,0.118-0.067
		c0.048-0.03,0.095-0.058,0.135-0.067c0.092,0.096,0.211,0.166,0.343,0.215c0.129,0.046,0.268,0.067,0.408,0.067
		c0.141,0,0.279-0.022,0.407-0.064c0.144-0.05,0.277-0.126,0.376-0.228c0.04,0.01,0.088,0.039,0.137,0.067
		c0.042,0.026,0.086,0.052,0.117,0.068h0.002l0.002,0.001l0.016,0.009l0.003,0.001c0.16,0.079,0.343,0.12,0.516,0.111
		c0.191-0.011,0.367-0.077,0.497-0.208l0,0l0.004-0.003l0.007-0.008v-0.001l0.001-0.002c0.045-0.05,0.082-0.104,0.107-0.162
		l0.005-0.011c0.064-0.146,0.071-0.313,0.038-0.455c-0.036-0.153-0.125-0.289-0.251-0.362c-0.007-0.005-0.014-0.009-0.022-0.014
		c-0.033-0.015-0.067-0.028-0.105-0.036c-0.137-0.033-0.285,0.022-0.329,0.123c-0.041,0.094,0.022,0.194,0.146,0.233
		c0.016,0.014,0.032,0.06,0.047,0.12c0.02,0.088,0.018,0.191-0.02,0.275l-0.004,0.007c-0.012,0.023-0.025,0.047-0.041,0.066
		l-0.001-0.001l-0.006,0.006c-0.032,0.031-0.07,0.048-0.109,0.051c-0.056,0.002-0.119-0.015-0.184-0.044l-0.012-0.007V22.5
		c-0.039-0.02-0.066-0.035-0.091-0.051c-0.09-0.055-0.179-0.107-0.279-0.14c0.003-0.024,0.006-0.049,0.007-0.073
		c0.01-0.183,0.011-0.513,0.013-0.926c0.006-1.599,0.019-4.482,0.49-4.809l0.036-0.029l-0.477-0.173
		c-0.553,0.63-0.564,3.428-0.571,5.011c-0.002,0.405-0.005,0.729-0.013,0.911c-0.01,0.171-0.127,0.283-0.273,0.334
		c-0.059,0.021-0.123,0.031-0.185,0.031c-0.062,0-0.124-0.01-0.177-0.028c-0.131-0.049-0.233-0.16-0.24-0.344
		c-0.006-0.152-0.008-0.393-0.011-0.691C14.885,19.978,14.856,16.897,14.274,16.295z"/>
	<ellipse fill-rule="evenodd" clip-rule="evenodd" fill="#000004" cx="11.676" cy="18.462" rx="0.954" ry="1.001"/>
	<path fill-rule="evenodd" clip-rule="evenodd" fill="#6F0007" d="M18.274,24.495c-0.427-0.153-1.623,0.364-1.926,0.371
		c-0.393,0.008-0.577,0.093-0.986,0.093c-0.35,0-0.701-0.1-1.059-0.106c-0.382-0.007-1.655-0.615-1.968-0.48
		c0.646-0.005,1.35,0.904,1.544,1.097c0.277,0.271,1.036,0.146,1.488,0.146c0.454,0,1.212,0.136,1.477-0.146
		C17.027,25.274,17.629,24.49,18.274,24.495z"/>
	<path fill-rule="evenodd" clip-rule="evenodd" fill="#E0E0DF" d="M16.893,18.797c0.408-0.605,0.73-1.087,1.817-1.171
		c1.167-0.089,1.452,0.287,2.378,0.939c-0.498,0.569-1.1,1.186-2.146,1.163C17.925,19.706,17.382,19.285,16.893,18.797z"/>
	<ellipse fill-rule="evenodd" clip-rule="evenodd" fill="#000004" cx="18.966" cy="18.462" rx="0.953" ry="1.001"/>
	<path fill-rule="evenodd" clip-rule="evenodd" fill="#000004" d="M16.837,18.65c-0.072,0.132,0.085,0.386,0.218,0.244
		c0.358-0.377,0.673-0.742,1.08-0.859c0.476-0.138,1.044-0.14,1.598-0.009c0.549,0.13,0.885,0.606,1.375,0.697
		c0.256,0.046,0.714-0.195,0.764-0.594c-0.172,0.251-0.467,0.314-0.738,0.197c-0.458-0.197-0.813-0.66-1.303-0.786
		c-0.649-0.168-1.259-0.101-1.732,0.013C17.438,17.713,17.096,18.17,16.837,18.65z"/>
	<path fill-rule="evenodd" clip-rule="evenodd" fill="#000004" d="M13.859,18.739c0.072,0.133-0.165,0.297-0.298,0.156
		c-0.357-0.378-0.647-0.843-1.054-0.961c-0.476-0.137-1.193-0.225-1.747-0.093c-0.549,0.13-0.715,0.731-1.206,0.821
		c-0.255,0.048-0.735-0.135-0.784-0.533c0.172,0.251,0.457,0.27,0.728,0.152c0.458-0.198,0.773-0.676,1.263-0.802
		c0.649-0.167,1.283-0.08,1.757,0.033C13.179,17.673,13.601,18.26,13.859,18.739z"/>
	<path fill-rule="evenodd" clip-rule="evenodd" fill="#D52322" d="M14.168,14.215c0.221,0.052,0.142,0.387-0.08,0.334l-0.072,0.233
		c0.124,0.267,0.894,0.081,0.522-0.873c-0.563-1.444,1.395-1.524,1.919-0.936c0.546,0.61-0.45,1.313,0.136,1.834
		c0.163,0.143,0.398,0.087,0.443-0.025l-0.011-0.201h-0.001c-0.048-0.075-0.223,0.035-0.269-0.159
		c-0.059-0.247,0.366-0.33,0.56-0.025l0,0l0.032,0.53c-0.306,0.655-1.688,0.265-1.156-1.142c0.211-0.558-0.015-0.813-0.666-0.813
		c-0.614,0-0.892,0.237-0.667,0.812c0.542,1.387-0.845,1.81-1.154,1.144l0,0C13.542,14.519,13.814,14.131,14.168,14.215z"/>
	<polygon fill-rule="evenodd" clip-rule="evenodd" fill="#E0E0DF" points="15.397,23.994 12.975,23.537 12.433,24.25 15.541,24.878 
		17.935,24.193 17.878,23.681 	"/>
	<path fill-rule="evenodd" clip-rule="evenodd" fill="#E0E0DF" d="M13.229,23.954c-0.34,0-0.272-0.246-0.613-0.246
		c-0.31,0.465-1.57,1.513-2.135,2.261C11.071,25.8,12.379,25.107,13.229,23.954z"/>
	<path fill-rule="evenodd" clip-rule="evenodd" fill="#2D0030" d="M14.785,23.439c-0.304-0.176-0.675-0.108-0.947,0.075
		c-0.322,0.218-0.693,0.194-1.014,0.266c-0.121,0.026-0.194-0.031-0.276-0.056c-0.049-0.016-0.126-0.018-0.15,0.012
		c-0.092,0.109,0.22,0.401,0.347,0.433c0.114,0.028,0.306,0.129,0.419,0.095c0.39-0.12,0.633-0.271,1.04-0.243
		c0.443,0.029,0.488,0.317,1.144,0.317c0.654,0,0.699-0.288,1.144-0.317c0.407-0.027,0.648,0.123,1.041,0.243
		c0.112,0.034,0.261,0.062,0.375,0.034c0.129-0.032,0.226-0.167,0.134-0.276c-0.025-0.029-0.102-0.027-0.15-0.012
		c-0.082,0.025-0.155,0.082-0.276,0.056c-0.326-0.073-0.434-0.3-0.625-0.483c-0.21-0.202-0.511-0.348-1.053-0.129
		C15.512,23.625,15.214,23.687,14.785,23.439z"/>
	<path fill-rule="evenodd" clip-rule="evenodd" fill="#E0E0DF" d="M17.45,23.954c0.341,0,0.272-0.246,0.613-0.246
		c0.311,0.465,1.569,1.513,2.135,2.261C19.609,25.8,18.3,25.107,17.45,23.954z"/>
	<path fill-rule="evenodd" clip-rule="evenodd" fill="#000004" d="M15.424,23.765c-0.063-0.013-0.117-0.024-0.163-0.038
		l-0.007,0.038c-0.684-0.085-1.416-0.066-2.08,0.115c-0.885,0.24-1.511,0.633-2.309,1.083c-0.569,0.319-1.324,0.691-1.967,0.569
		c-1.244-0.235-2.422-0.361-3.135-1.539c1.35,0.285,2.721,0.076,4.048-0.172c1.152-0.213,2.111-0.747,3.278-0.854
		c0.771-0.071,1.51,0.115,2.25,0.342c0.741-0.227,1.481-0.413,2.251-0.342c1.168,0.107,2.126,0.642,3.278,0.854
		c1.327,0.248,2.699,0.457,4.048,0.172c-0.712,1.178-1.891,1.304-3.135,1.539c-0.644,0.122-1.398-0.25-1.967-0.569
		c-0.799-0.45-1.425-0.843-2.31-1.083C16.842,23.698,16.11,23.68,15.424,23.765z"/>
	<linearGradient id="SVGID_1_" gradientUnits="userSpaceOnUse" x1="11.2837" y1="8.0806" x2="19.5352" y2="8.0806">
		<stop  offset="0" style="stop-color:#B65619"/>
		<stop  offset="1" style="stop-color:#E98820"/>
		<a:midPointStop  offset="0" style="stop-color:#B65619"/>
		<a:midPointStop  offset="0.5" style="stop-color:#B65619"/>
		<a:midPointStop  offset="1" style="stop-color:#E98820"/>
	</linearGradient>
	<path fill-rule="evenodd" clip-rule="evenodd" fill="url(#SVGID_1_)" d="M13.882,11.775c0.326,0.067,1.006,0.562,1.776,0.51
		c0.617-0.041,1.333-0.616,1.67-0.672c-1.196-1.297-0.074-2.529,0.445-3.168c2.022-2.489,0.048-4.573-2.454-4.573
		c-2.501,0-4.475,2.084-2.454,4.573C13.386,9.084,14.832,10.129,13.882,11.775z"/>
	<path fill-rule="evenodd" clip-rule="evenodd" fill="#350000" d="M14.2,7.28c-0.118-0.505-0.395-0.868-0.617-0.811
		c-0.223,0.058-0.307,0.514-0.189,1.019c0.119,0.505,0.395,0.868,0.618,0.81C14.234,8.241,14.319,7.785,14.2,7.28L14.2,7.28z
		 M16.574,7.28c0.118-0.505,0.395-0.868,0.616-0.811c0.223,0.058,0.309,0.514,0.189,1.019c-0.118,0.505-0.396,0.868-0.617,0.81
		C16.54,8.241,16.456,7.785,16.574,7.28z"/>
</g>
</svg>
