<?xml version="1.0"?>
<svg width="512" height="512" xmlns="http://www.w3.org/2000/svg" xmlns:svg="http://www.w3.org/2000/svg" version="1.1">

 <g class="layer">
  <title>Layer 1</title>
  <path fill="#454545" fill-rule="evenodd" id="svg_1"/>
  <path d="m220,79.96c-36.71,5.25 -92.91,43.44 -81.34,55.27c27.39,27.97 31.09,30.33 37.65,24.05c35.69,-34.16 74.04,-42.63 101.44,-22.41c27.45,20.27 0.61,56.56 -60.45,81.73c-4.84,1.99 -8.95,3.76 -9.13,3.92c-0.33,0.31 7.5,45.65 8.41,48.64c0.45,1.5 1.1,1.42 6.52,-0.78c47.24,-19.19 97.01,1.75 89.94,37.84c-10.46,53.46 -81.09,88.76 -126.54,63.26c-25.43,-14.26 -31.75,-26.88 -32.59,-64.98c-0.96,-43.42 -11.08,-62.23 -38,-70.6c-41.79,-13.01 -77.42,28.66 -68.48,80.09c2.07,11.9 -0.04,10.55 22.67,14.44c27.43,4.69 28.22,4.77 27.52,2.74c-0.31,-0.92 -2.17,-6.27 -4.12,-11.89c-9.37,-26.93 -3.61,-43.3 15.22,-43.27c21.1,0.04 37.37,26.45 40.35,65.49c2.62,34.39 7.4,48.56 21.81,64.62c29.74,33.13 90.64,27.1 122.36,-12.12c17.23,-21.3 24.55,-42.68 25.87,-75.5c1.84,-45.9 17.15,-87.31 35.35,-95.57c5.19,-2.36 5.36,-2.15 4.79,5.89c-1.13,15.77 3.04,35.95 9.36,45.35c3.58,5.32 3.58,5.32 2.37,14.52c-6.72,50.75 48.84,67.61 92.5,28.08c4.73,-4.28 4.73,-4.28 -3.53,-29.77c-8.26,-25.5 -8.26,-25.5 -14.86,-19c-24.89,24.54 -69.44,24.37 -67.48,-0.26c2.44,-30.75 -2.41,-55.4 -15.96,-81.24c-12.91,-24.59 -31.3,-16.73 -51.23,21.9c-6.89,13.36 -5.89,12.16 -8.94,10.77c-2.39,-1.08 -2.45,-1.29 -1.02,-3.46c11.44,-17.47 10,-50.3 -3.04,-69.4c-2.14,-3.13 -2.51,-4.61 -2.11,-8.31c3.57,-32.35 -37.87,-65.39 -75.31,-60.04m154.65,8.52c-18.7,6.56 -10.43,32.58 8.95,28.14c12.32,-2.83 13.47,-24.83 1.46,-28.02c-4.93,-1.31 -6.94,-1.33 -10.41,-0.12m-64.65,7.54c15.32,50.58 70.53,64.83 116.5,30.08c12.42,-9.39 33.13,-31.62 30.32,-32.54c-3.78,-1.25 -23.16,-3.6 -23.76,-2.89c-0.38,0.46 -3.94,4.96 -7.91,10.01c-40.82,51.94 -81.69,52.71 -83.89,1.57c-0.53,-12.25 -0.53,-12.25 -16.8,-12.25c-16.28,0 -16.28,0 -14.46,6.02" fill="#ff6600" fill-rule="evenodd" id="svg_2"/>
 </g>
</svg>